<?xml version="1.0" encoding="UTF-8"?>
<svg id="Capa_2" data-name="Capa 2" xmlns="http://www.w3.org/2000/svg" viewBox="0 0 241.62 343.32">
  <defs>
    <style>
      .cls-1 {
        fill: #79b2d4;
        opacity: .46;
      }

      .cls-1, .cls-2, .cls-3 {
        stroke: #000;
        stroke-miterlimit: 10;
      }

      .cls-2 {
        fill: #1f7fb7;
      }

      .cls-3 {
        fill: #fff;
      }
    </style>
  </defs>
  <g id="Fantasma_3" data-name="Fantasma 3">
    <path class="cls-1" d="m135.53.56C77.29,2.27,30.03,47.8,30.03,106.06S.53,311.56.53,311.56c58.47,100.13,235.06-59.69,240.5-205.5C243.23,47.13,206.3-1.51,135.53.56Z"/>
    <path class="cls-2" d="m195.37,83.31c-.79,4.69-4.67,8.25-9.35,8.25-5.25,0-9.5-4.48-9.5-10,0-3.72,1.93-6.95,4.79-8.68-2.75-.85-5.71-1.32-8.79-1.32-14.36,0-26,10.07-26,22.5s11.64,22.5,26,22.5,26-10.07,26-22.5c0-3.89-1.14-7.56-3.15-10.75Z"/>
    <path class="cls-2" d="m121.32,83.91c-.79,4.69-4.67,8.25-9.35,8.25-5.25,0-9.5-4.48-9.5-10,0-3.72,1.93-6.95,4.79-8.68-2.75-.85-5.71-1.32-8.79-1.32-14.36,0-26,10.07-26,22.5s11.64,22.5,26,22.5,26-10.07,26-22.5c0-3.89-1.14-7.56-3.15-10.75Z"/>
    <path class="cls-3" d="m76.56,161.56c0,.17-.03.33-.03.5,0,11.32,20.42,23.5,45,23.5s44-12.18,44-23.5c0-.17-.02-.33-.03-.5h-88.95Z"/>
  </g>
</svg>