<?xml version="1.0" encoding="UTF-8"?>
<svg id="Capa_2" data-name="Capa 2" xmlns="http://www.w3.org/2000/svg" viewBox="0 0 248.97 360.54">
  <defs>
    <style>
      .cls-1 {
        fill: #f2e88c;
        opacity: .46;
      }

      .cls-1, .cls-2, .cls-3 {
        stroke: #000;
        stroke-miterlimit: 10;
      }

      .cls-2 {
        fill: #ead83f;
      }

      .cls-3 {
        fill: #fff;
      }
    </style>
  </defs>
  <g id="Fantasma_2" data-name="Fantasma 2">
    <path class="cls-1" d="m106.01.5C47.75.5-.43,47.74.51,106c2.21,136.05,269.96,330.87,246.5,222.5-7.99,43.37-60.45-123.96-35.5-222.5C225.82,49.52,164.28.5,106.01.5Z"/>
    <path class="cls-2" d="m41.65,99.42c-3.9,3.06-3.5,9.16.85,11.54.03.02.06.03.09.05,17.19,9.36,36.94,6.29,44.11-6.87,4.15-7.62,3.17-17.18-1.72-25.62-2.83-4.87-9.29-6.16-13.7-2.65l-29.63,23.55Z"/>
    <path class="cls-2" d="m170.84,98.64c3.53,2.56,3.32,7.84-.36,10.18-.38.24-.76.48-1.15.71-16.83,10-36.68,7.66-44.33-5.22-4.58-7.71-3.74-17.44,1.27-26.15,2.57-4.47,8.46-5.7,12.63-2.68l31.95,23.17Z"/>
    <path class="cls-3" d="m126.01,169.5c-4.53,6.27-3.54,14-19,14s-15.8-7.51-20-14c-11-17,.59-23.91,20-24,19.74-.09,32,6,19,24Z"/>
  </g>
</svg>