<?xml version="1.0" encoding="UTF-8"?>
<svg id="Capa_2" data-name="Capa 2" xmlns="http://www.w3.org/2000/svg" viewBox="0 0 213.67 381.51">
  <defs>
    <style>
      .cls-1, .cls-2, .cls-3 {
        stroke: #000;
        stroke-miterlimit: 10;
      }

      .cls-1, .cls-3 {
        fill: #bd7bed;
      }

      .cls-2 {
        fill: #fff;
      }

      .cls-3 {
        opacity: .46;
      }
    </style>
  </defs>
  <g id="Fantasma_1" data-name="Fantasma 1">
    <path class="cls-3" d="m106,.5C47.73.5.5,47.73.5,106s106.5,273.5,106.5,273.5c-.32-.28,93.75-224.57,104.5-273.5C224,49.09,164.27.5,106,.5Z"/>
    <path class="cls-1" d="m43.13,71.47c-.73,3.2-1.13,6.58-1.13,10.08,0,19.57,12.15,35.44,27.14,35.44,11.72,0,21.68-9.72,25.47-23.32l-51.48-22.21Z"/>
    <path class="cls-1" d="m168.37,71.06c.73,3.2,1.13,6.58,1.13,10.08,0,19.57-12.15,35.44-27.14,35.44-11.72,0-21.68-9.72-25.47-23.32l51.48-22.21Z"/>
    <path class="cls-2" d="m147,194.5l-84.91-25.87c-5.67-.88-8.97-10.46-8.09-16.13h0c.59-4.27,2.33,9.12,8,10l78,10c5.67.88,19.88-14.67,19-9l-1,9.45c-.88,5.67-5.32,22.43-11,21.55Z"/>
  </g>
</svg>